<svg width="15" height="15" viewBox="0 0 15 15" fill="none" xmlns="http://www.w3.org/2000/svg">
<path d="M14.9007 5.29C13.2698 1.92083 10.8047 0.225281 7.5 0.225281C4.19361 0.225281 1.73017 1.92083 0.0993382 5.29169C0.0339251 5.42753 0 5.5759 0 5.72612C0 5.87635 0.0339251 6.02471 0.0993382 6.16056C1.73017 9.52973 4.19533 11.2253 7.5 11.2253C10.8064 11.2253 13.2698 9.52973 14.9007 6.15887C15.0331 5.88556 15.0331 5.56838 14.9007 5.29ZM7.5 10.0106C4.72518 10.0106 2.69353 8.6305 1.26053 5.72528C2.69353 2.82007 4.72518 1.44 7.5 1.44C10.2748 1.44 12.3065 2.82007 13.7395 5.72528C12.3082 8.6305 10.2765 10.0106 7.5 10.0106ZM7.43118 2.75596C5.75907 2.75596 4.40349 4.0854 4.40349 5.72528C4.40349 7.36516 5.75907 8.69461 7.43118 8.69461C9.1033 8.69461 10.4589 7.36516 10.4589 5.72528C10.4589 4.0854 9.1033 2.75596 7.43118 2.75596ZM7.43118 7.61485C6.36633 7.61485 5.50447 6.76961 5.50447 5.72528C5.50447 4.68096 6.36633 3.83571 7.43118 3.83571C8.49604 3.83571 9.3579 4.68096 9.3579 5.72528C9.3579 6.76961 8.49604 7.61485 7.43118 7.61485Z" fill="#000757"/>
</svg>
