<svg xmlns="http://www.w3.org/2000/svg" xmlns:xlink="http://www.w3.org/1999/xlink" viewBox="0 0 293.78 134.45"><defs><style>.cls-1{fill:url(#Degradado_sin_nombre_14);}.cls-2{fill:#333a8f;}</style><linearGradient id="Degradado_sin_nombre_14" x1="15.68" y1="-26.09" x2="272.35" y2="128.14" gradientUnits="userSpaceOnUse"><stop offset="0" stop-color="#e6007e"/><stop offset="0.9" stop-color="#333a8f"/></linearGradient></defs><title>Recurso 6</title><g id="Capa_2" data-name="Capa 2"><g id="Capa_1-2" data-name="Capa 1"><path class="cls-1" d="M269.84,98.17A24.88,24.88,0,0,0,263.25,95c-2.22-.65-3.94-1.1-5.19-1.35q-6.27-1.59-10.15-2.62A36.58,36.58,0,0,1,241.84,89a6.63,6.63,0,0,1-3-2.24,6,6,0,0,1-.75-3.18,6.21,6.21,0,0,1,.94-3.55,7.93,7.93,0,0,1,2.38-2.34,9.59,9.59,0,0,1,3.23-1.31,17.12,17.12,0,0,1,3.55-.37,25.16,25.16,0,0,1,5,.46,12.36,12.36,0,0,1,4.07,1.59,8.26,8.26,0,0,1,2.85,3.09,11.83,11.83,0,0,1,1.27,4.95h14.21a20.55,20.55,0,0,0-2.2-9.86,19.12,19.12,0,0,0-5.94-6.69A25.12,25.12,0,0,0,259,65.77a42.65,42.65,0,0,0-7.31-1.09,22.78,22.78,0,0,0,4.71-2.5,17.1,17.1,0,0,0,5.28-6,18.36,18.36,0,0,0,2-8.74,18.55,18.55,0,0,0-3-10.71,16.11,16.11,0,0,0-9.21-6.22A16.67,16.67,0,0,0,258.13,25a14.7,14.7,0,0,0,2.29-8.42,17.86,17.86,0,0,0-1.55-7.85,12.77,12.77,0,0,0-4.34-5.1A18.75,18.75,0,0,0,247.79.84,41.53,41.53,0,0,0,239.1,0H207.68V62.26L184.39,0h-15L148.76,54.42H117.82V0H96.69L77.14,28,58.25,0H45.54V41.33a32.59,32.59,0,0,1-1.31,9.87,16.47,16.47,0,0,1-3.84,6.63,14.67,14.67,0,0,1-6.17,3.74,27.19,27.19,0,0,1-8.32,1.17,26.91,26.91,0,0,1-8.23-1.17,14.67,14.67,0,0,1-6.17-3.74A16.46,16.46,0,0,1,7.67,51.2a32.28,32.28,0,0,1-1.31-9.87V0H0V42.73A32.35,32.35,0,0,0,1.45,52.5,21.24,21.24,0,0,0,6,60.59a21.76,21.76,0,0,0,8,5.47,31.24,31.24,0,0,0,11.83,2,31.44,31.44,0,0,0,11.92-2A21,21,0,0,0,50.45,52.5a32.67,32.67,0,0,0,1.45-9.77V1.6L73.4,32.35,49.46,66.76h7.11L77.14,37.31,97,66.19H90.87V133h14.68V66.76h22.89c-.45.18-.9.35-1.34.55a29.49,29.49,0,0,0-10.33,7.48A33.26,33.26,0,0,0,110.32,86a41.67,41.67,0,0,0-2.25,13.89,40.28,40.28,0,0,0,2.25,13.61,32.29,32.29,0,0,0,6.45,11,29.4,29.4,0,0,0,10.33,7.34,34.16,34.16,0,0,0,13.79,2.67,33.07,33.07,0,0,0,11.32-1.87,26.32,26.32,0,0,0,9-5.43,27.06,27.06,0,0,0,6.17-8.6,34.33,34.33,0,0,0,2.9-11.31H156a19,19,0,0,1-4.63,10.84q-3.78,4.13-10.52,4.12a17.09,17.09,0,0,1-8.41-1.92,15.83,15.83,0,0,1-5.61-5.1,22,22,0,0,1-3.14-7.15,34.17,34.17,0,0,1-1-8.18,36.77,36.77,0,0,1,1-8.51A22.55,22.55,0,0,1,126.87,84a15.84,15.84,0,0,1,5.61-5.14,17.09,17.09,0,0,1,8.41-1.92,15.3,15.3,0,0,1,5.19.89A15,15,0,0,1,153.8,84a12,12,0,0,1,1.68,4.63h14.21a26.88,26.88,0,0,0-3.17-10.29,25,25,0,0,0-6.41-7.52,27.9,27.9,0,0,0-7.24-4.06h6L164.1,51.9h25l4.85,14.29H172.78V133h50.68V120.61h-36V104.24h32.35V92.84H187.46V78.53h35.25V66.76H237.1a24.38,24.38,0,0,0-5.22,2.79,19.88,19.88,0,0,0-5.75,6.32,17.42,17.42,0,0,0-2.2,8.93,16.23,16.23,0,0,0,1.73,7.8A16.44,16.44,0,0,0,230.19,98a25.05,25.05,0,0,0,6.36,3.51,66.35,66.35,0,0,0,7.29,2.29c2.44.68,4.84,1.31,7.2,1.87a44.86,44.86,0,0,1,6.36,2,13.73,13.73,0,0,1,4.54,2.81,5.87,5.87,0,0,1,1.73,4.39,6.47,6.47,0,0,1-1.31,4.16,9.11,9.11,0,0,1-3.27,2.57,14.49,14.49,0,0,1-4.21,1.27,29,29,0,0,1-4.21.32,22.23,22.23,0,0,1-5.61-.7,13.91,13.91,0,0,1-4.72-2.15,10.57,10.57,0,0,1-3.23-3.79,12.22,12.22,0,0,1-1.21-5.7H221.68a22.07,22.07,0,0,0,2.25,10.66,21,21,0,0,0,6.31,7.39,26.88,26.88,0,0,0,9.16,4.25,42.38,42.38,0,0,0,10.71,1.36,41.13,41.13,0,0,0,12-1.59,25.33,25.33,0,0,0,8.69-4.44,18.52,18.52,0,0,0,5.29-6.78,20.49,20.49,0,0,0,1.77-8.51,16.36,16.36,0,0,0-2.38-9.21A19.9,19.9,0,0,0,269.84,98.17ZM103.14,64,81,32.54,103.14.93Zm64.8-23,8.69-24.5h.19L185.24,41Zm54.42-29.55H236.1a22.19,22.19,0,0,1,3.79.32,9.55,9.55,0,0,1,3.23,1.17,6.23,6.23,0,0,1,2.24,2.34,7.8,7.8,0,0,1,.84,3.84c0,2.8-.84,4.83-2.52,6.07A10.52,10.52,0,0,1,237.23,27H222.36Zm0,43.94V37h16a12.36,12.36,0,0,1,7.67,2.2q2.89,2.19,2.9,7.34a9.24,9.24,0,0,1-.89,4.3,7.08,7.08,0,0,1-2.39,2.66,10.2,10.2,0,0,1-3.46,1.41,19.62,19.62,0,0,1-4.11.41Z"/><rect class="cls-2" x="279.1" y="66.19" width="14.68" height="66.77"/></g></g></svg>