<svg width="15" height="15" viewBox="0 0 15 15" fill="none" xmlns="http://www.w3.org/2000/svg">
<path d="M14.902 6.20492C14.3055 4.94821 13.5956 3.92329 12.7724 3.13017L11.909 3.99354C12.6131 4.66636 13.2263 5.54653 13.7566 6.64271C12.3448 9.56474 10.3408 10.9528 7.602 10.9528C6.77992 10.9528 6.02272 10.8262 5.33039 10.573L4.3949 11.5085C5.35647 11.9525 6.4255 12.1745 7.602 12.1745C10.8634 12.1745 13.2967 10.476 14.902 7.07881C14.9665 6.94219 15 6.79296 15 6.64186C15 6.49076 14.9665 6.34154 14.902 6.20492ZM13.8233 0.764042L13.0999 0.0398137C13.0873 0.0271921 13.0723 0.0171794 13.0558 0.0103479C13.0394 0.00351633 13.0217 0 13.0039 0C12.986 0 12.9683 0.00351633 12.9519 0.0103479C12.9354 0.0171794 12.9204 0.0271921 12.9078 0.0398137L11.0519 1.89484C10.0287 1.3722 8.87874 1.11088 7.602 1.11088C4.3406 1.11088 1.90728 2.80946 0.302027 6.20661C0.237504 6.34324 0.204041 6.49246 0.204041 6.64356C0.204041 6.79466 0.237504 6.94388 0.302027 7.08051C0.943335 8.43122 1.71542 9.51389 2.61827 10.3285L0.82263 12.1236C0.797191 12.1491 0.782901 12.1836 0.782901 12.2196C0.782901 12.2556 0.797191 12.2901 0.82263 12.3155L1.54703 13.0399C1.57248 13.0654 1.607 13.0797 1.64299 13.0797C1.67897 13.0797 1.71349 13.0654 1.73894 13.0399L13.8233 0.956129C13.8359 0.943521 13.8459 0.92855 13.8527 0.91207C13.8596 0.89559 13.8631 0.877925 13.8631 0.860085C13.8631 0.842246 13.8596 0.824581 13.8527 0.808101C13.8459 0.791621 13.8359 0.776649 13.8233 0.764042ZM1.44742 6.64271C2.86092 3.72069 4.86494 2.33264 7.602 2.33264C8.52748 2.33264 9.36896 2.49147 10.1324 2.81438L8.93948 4.00729C8.37454 3.70586 7.72767 3.59399 7.09431 3.68818C6.46094 3.78237 5.87462 4.07764 5.42184 4.53042C4.96906 4.9832 4.67379 5.56952 4.5796 6.20289C4.48541 6.83625 4.59728 7.48312 4.8987 8.04807L3.48317 9.4636C2.69972 8.77213 2.02436 7.83528 1.44742 6.64271ZM5.63362 6.64271C5.63392 6.34349 5.70479 6.04856 5.84049 5.78188C5.97619 5.5152 6.17288 5.28428 6.41458 5.1079C6.65628 4.93151 6.93619 4.81463 7.23155 4.76675C7.52692 4.71886 7.82941 4.74132 8.11446 4.83231L5.72373 7.22304C5.6638 7.03544 5.63341 6.83966 5.63362 6.64271Z" fill="#000757"/>
<path d="M7.53415 8.54322C7.47544 8.54322 7.41757 8.54051 7.36022 8.53525L6.46393 9.43154C7.00301 9.63799 7.59035 9.68387 8.15495 9.56363C8.71955 9.44339 9.23724 9.16218 9.64543 8.75399C10.0536 8.34581 10.3348 7.82812 10.4551 7.26352C10.5753 6.69892 10.5294 6.11158 10.323 5.57249L9.42668 6.46879C9.43194 6.52614 9.43466 6.584 9.43466 6.64272C9.43479 6.89233 9.38572 7.13953 9.29026 7.37017C9.1948 7.60081 9.05481 7.81037 8.87831 7.98688C8.7018 8.16338 8.49224 8.30337 8.2616 8.39883C8.03096 8.49429 7.78377 8.54336 7.53415 8.54322Z" fill="#000757"/>
</svg>
